<svg version="1" xmlns="http://www.w3.org/2000/svg" width="933.333" height="933.333" viewBox="0 0 700.000000 700.000000"><path d="M60.9.4c-.2.2-1.7.6-3.4.9C40.7 4 22.7 15.4 12.8 29.7 9.3 34.9 3.4 47.3 2.5 51.6c-.4 1.6-1.1 5.2-1.6 8.1-1.4 8.1-.7 583.1.7 586.3.7 1.4 1.8 4.5 2.5 7 3.4 11.7 14.3 26.3 25.4 33.9 9.2 6.4 17.5 9.9 29 12.1 3.1.6 113.4.9 292.5.9 286.7.1 287.5 0 295.5-2 21.3-5.5 37.6-18.9 46.9-38.9 7.1-15.4 6.6 10.3 6.3-312l-.2-290.5-2.3-6.5c-3.3-9.4-6.1-14.7-11.6-22-9.7-12.9-20.6-20.2-39.1-26.2C643.3.8 586.3.5 351.9.3 192.1.1 61.2.2 60.9.4zm297.3 133.7c10.7 2.3 18 8.1 21.9 17.7 2.3 5.6 2.4 6.5 2.7 42.4l.3 36.8 19.2.1c23.7 0 26.8.3 33.1 3.3 8.5 3.9 12.8 9.4 16 20 1.9 6.1 1.9 34.4.1 41.1-1.7 6.6-3.2 10.4-4.8 12-.6.7-2 2.1-2.9 3.1-3.7 4.2-8.5 6.9-13.8 7.9-1.9.3-4.4.8-5.5 1-1.1.2-10.9.4-21.8.4l-19.8.1.3 56.7c.4 54.4.5 57 2.5 62.5 5.7 15.9 16.1 23.5 38 27.9 18.8 3.7 25.2 7.3 29.3 16.4 3 6.5 3.3 9.7 3.6 35.5.2 18.6-.1 25.7-1.2 29.6-3.5 12.8-18.3 19.5-42.8 19.5-11-.1-13.9-.3-26.6-2.1-6.8-1-7.7-1.2-15.1-2.9-50.4-11.5-86.6-45.9-94.8-90.1-.6-3-1.4-6.9-1.7-8.5-.4-1.7-.9-34.7-1-73.4-.2-38.7-.5-70.5-.6-70.6-.2-.1-4.3-.5-9.3-.8-11.2-.8-15.1-1.9-21.2-6.1-3.6-2.4-5.6-4.9-8-9.6-3.7-7.3-4.6-13.1-4.7-28.5-.1-9.8.2-13.2 1.9-22.3 1.5-8.4 10.8-17.8 19.8-20.3 6.4-1.7 6.6-1.7 16.3-1.8l9.1-.1.1-33.5c0-18.4.3-35.4.7-37.7 2.3-13.4 11.5-23.3 23.8-25.8 6.5-1.2 50.8-1.2 56.9.1z"/></svg>